# xmcd
# 
# Track frame offsets:
#     150
#     17817
#     34068
#     47162
# 
# Disc length: 825
# 
# Revision: 0
# Processed by: cddbd v1.5.2PL0 Copyright (c) Steve Scherf et al.
# Submitted via: fre:ac v1.0.17
# 
DISCID=2b033704
DTITLE=El Pez Listo - Más de 3 segundos
DYEAR=0
DGENRE=
TTITLE0=Kaló
TTITLE1=Kítateme Delante
TTITLE2=Pelo Elegancia
TTITLE3=Viva mi Ron
EXTD=
EXTT0=
EXTT1=
EXTT2=
EXTT3=
PLAYORDER=
